<?xml version="1.0" standalone="no"?>
<!DOCTYPE svg PUBLIC "-//W3C//DTD SVG 20010904//EN"
 "http://www.w3.org/TR/2001/REC-SVG-20010904/DTD/svg10.dtd">
<svg version="1.0" xmlns="http://www.w3.org/2000/svg"
 width="512.000000pt" height="512.000000pt" viewBox="0 0 512.000000 512.000000"
 preserveAspectRatio="xMidYMid meet">
<metadata>
Created by potrace 1.14, written by Peter Selinger 2001-2017
</metadata>
<g transform="translate(0.000000,512.000000) scale(0.100000,-0.100000)"
fill="#000000" stroke="none">
<path d="M2080 4633 c-275 -28 -543 -104 -787 -223 -428 -209 -757 -546 -949
-970 -358 -794 -198 -1703 423 -2405 229 -257 615 -524 986 -679 384 -161 853
-238 1080 -177 329 88 542 364 524 680 -6 116 -31 195 -98 311 -66 116 -76
146 -55 169 32 35 100 43 396 47 309 3 435 16 587 60 359 104 633 380 738 742
141 484 -87 1102 -591 1606 -469 467 -1081 762 -1739 836 -83 9 -435 11 -515
3z m525 -339 c281 -34 535 -112 803 -244 285 -142 501 -298 712 -516 269 -277
428 -552 496 -855 27 -119 23 -283 -10 -394 -93 -310 -322 -501 -666 -555 -36
-5 -201 -12 -365 -14 -218 -4 -319 -9 -369 -20 -146 -33 -256 -108 -305 -209
-55 -114 -49 -269 15 -388 121 -226 137 -296 90 -393 -74 -150 -204 -218 -421
-218 -277 0 -684 140 -1070 367 -450 265 -776 666 -938 1156 -196 591 -69
1238 331 1692 300 341 742 564 1198 606 122 11 340 4 499 -15z"/>
<path d="M2140 4058 c-38 -15 -74 -40 -116 -82 -78 -78 -104 -143 -104 -256 0
-113 26 -178 104 -256 78 -78 143 -104 256 -104 113 0 178 26 256 104 78 78
104 143 104 256 0 113 -26 178 -104 256 -79 79 -143 104 -259 103 -58 0 -98
-6 -137 -21z"/>
<path d="M1180 3418 c-38 -15 -74 -40 -116 -82 -78 -78 -104 -143 -104 -256 0
-113 26 -178 104 -256 78 -78 143 -104 256 -104 113 0 178 26 256 104 78 78
104 143 104 256 0 113 -26 178 -104 256 -79 79 -143 104 -259 103 -58 0 -98
-6 -137 -21z"/>
<path d="M3688 3021 c-74 -24 -144 -69 -200 -129 -91 -97 -128 -194 -128 -332
0 -138 37 -235 128 -332 95 -101 206 -148 352 -148 146 0 257 47 352 148 91
97 128 194 128 332 0 138 -37 235 -128 332 -57 61 -127 105 -203 129 -81 25
-222 25 -301 0z m300 -186 c59 -32 101 -75 134 -138 19 -35 23 -58 23 -137 0
-87 -3 -100 -30 -149 -30 -54 -82 -103 -145 -137 -54 -29 -210 -27 -267 4
-106 56 -163 142 -171 256 -5 86 8 139 51 203 33 50 107 106 161 123 17 5 67
8 111 7 66 -3 89 -8 133 -32z"/>
<path d="M1180 2298 c-38 -15 -74 -40 -116 -82 -78 -78 -104 -143 -104 -256 0
-113 26 -178 104 -256 78 -78 143 -104 256 -104 113 0 178 26 256 104 78 78
104 143 104 256 0 113 -26 178 -104 256 -79 79 -143 104 -259 103 -58 0 -98
-6 -137 -21z"/>
<path d="M2060 1578 c-38 -15 -74 -40 -116 -82 -78 -78 -104 -143 -104 -256 0
-113 26 -178 104 -256 78 -78 143 -104 256 -104 113 0 178 26 256 104 78 78
104 143 104 256 0 113 -26 178 -104 256 -79 79 -143 104 -259 103 -58 0 -98
-6 -137 -21z"/>
</g>
</svg>
